# xmcd
#
# Track frame offsets: 
#        150
#        14816
#        29584
#        45614
#        60625
#        75540
#        91018
#        102509
#        116792
#        129061
#        141406
#        153499
#        166620
#        179073
#        192412
#        207968
#        223513
#        237439
#        250466
#        265059
#        280060
#        295686
#        308925
#
# Disc length: 4288 seconds
#
# Revision: 1
# Processed by: cddbd v1.5.2PL0 Copyright (c) Steve Scherf et al.
# Submitted via: ExactAudioCopyFreeDBPlugin 1.0
#
DISCID=5310be17
DTITLE=Various Artist - Knoxville Sessions 1929-30 - CD 3
DYEAR=2016
DGENRE=Old Time Country Music
TTITLE0=Kentucky Holiness Singers - I'm on My Way
TTITLE1=Kentucky Holiness Singers - I Will Not Be Removed
TTITLE2=Smoky Mountain Ramblers - No Business of Mine
TTITLE3=Smoky Mountain Ramblers - Bear Mountain Rag
TTITLE4=The Appalachia Vagabond - Hard for to Love
TTITLE5=The Appalachia Vagabond - Peddler and His Wife
TTITLE6=L. McFarland and R.A. Gardner - Where the Sweet Magnolias Bloom
TTITLE7=L. McFarland and R.A. Gardner - My Little Georgia Rose
TTITLE8=Gibbs Brothers with Claude Davis - Goodbye Dixie Dear
TTITLE9=Gibbs Brothers with Claude Davis - Do You Think That You Could
TTITLE9=Love Me
TTITLE10=Gibbs Brothers with Claude Davis - You Left Me Last Night Bro
TTITLE10=ken Hearted
TTITLE11=Gibbs Brothers with Claude Davis - Strolling Home with Jenny
TTITLE12=Gibbs Brothers with Claude Davis - I Love My Toodlem-Doo
TTITLE13=Gibbs Brothers with Claude Davis - I Wandered Away from Home
TTITLE14=Clayton and His Melody Mountaineers - Lookout Valley Waltz
TTITLE15=Clayton and His Melody Mountaineers - June Wedding Waltz
TTITLE16=Tennessee Chocolate Drops - Knox County Stomp
TTITLE17=Tennessee Chocolate Drops - Vine Street Rag
TTITLE18=L. McFarland and R.A. Gardner - I've Grown So Used to You
TTITLE19=L. McFarland and R.A. Gardner - The Unmarked Grave
TTITLE20=L. McFarland and R.A. Gardner - The Mansion of Aching Hearts
TTITLE21=L. McFarland and R.A. Gardner - Will the Roses Bloom in Heaven
TTITLE22=L. McFarland and R.A. Gardner - Asleep At the Switch
EXTD=
EXTT0=
EXTT1=
EXTT2=
EXTT3=
EXTT4=
EXTT5=
EXTT6=
EXTT7=
EXTT8=
EXTT9=
EXTT10=
EXTT11=
EXTT12=
EXTT13=
EXTT14=
EXTT15=
EXTT16=
EXTT17=
EXTT18=
EXTT19=
EXTT20=
EXTT21=
EXTT22=
PLAYORDER=
